<mxfile host="app.diagrams.net" modified="2023-01-02T11:41:38.327Z" agent="5.0 (Windows NT 10.0; Win64; x64) AppleWebKit/537.36 (KHTML, like Gecko) Chrome/108.0.0.0 Safari/537.36" version="20.7.4" etag="Xj1__rSgdIW5dD4mRNuV" type="github">
  <diagram id="aSknAS5bzjxorr2TODp2">
    <mxGraphModel dx="1195" dy="630" grid="1" gridSize="10" guides="1" tooltips="1" connect="1" arrows="1" fold="1" page="1" pageScale="1" pageWidth="827" pageHeight="1169" math="0" shadow="0">
      <root>
        <mxCell id="0" />
        <mxCell id="1" parent="0" />
        <mxCell id="8ixF9nkOyML7NzaQuVDj-12" value="" style="edgeStyle=orthogonalEdgeStyle;rounded=0;orthogonalLoop=1;jettySize=auto;html=1;fontFamily=Helvetica;fontSize=12;fontColor=default;" edge="1" parent="1" source="8ixF9nkOyML7NzaQuVDj-6" target="8ixF9nkOyML7NzaQuVDj-7">
          <mxGeometry relative="1" as="geometry" />
        </mxCell>
        <mxCell id="8ixF9nkOyML7NzaQuVDj-18" style="edgeStyle=orthogonalEdgeStyle;rounded=0;orthogonalLoop=1;jettySize=auto;html=1;fontFamily=Helvetica;fontSize=12;fontColor=default;entryX=0.5;entryY=0;entryDx=0;entryDy=0;" edge="1" parent="1" source="8ixF9nkOyML7NzaQuVDj-6" target="8ixF9nkOyML7NzaQuVDj-9">
          <mxGeometry relative="1" as="geometry">
            <mxPoint x="320" y="100" as="targetPoint" />
          </mxGeometry>
        </mxCell>
        <mxCell id="8ixF9nkOyML7NzaQuVDj-6" value="equation" style="rounded=1;whiteSpace=wrap;html=1;fillColor=#dae8fc;strokeColor=#6c8ebf;fillStyle=hatch;" vertex="1" parent="1">
          <mxGeometry x="360" y="80" width="80" height="40" as="geometry" />
        </mxCell>
        <mxCell id="8ixF9nkOyML7NzaQuVDj-7" value="Solver" style="rounded=1;whiteSpace=wrap;html=1;fillColor=#d5e8d4;strokeColor=#82b366;fillStyle=hatch;" vertex="1" parent="1">
          <mxGeometry x="360" y="160" width="80" height="40" as="geometry" />
        </mxCell>
        <mxCell id="8ixF9nkOyML7NzaQuVDj-13" value="" style="edgeStyle=orthogonalEdgeStyle;rounded=0;orthogonalLoop=1;jettySize=auto;html=1;fontFamily=Helvetica;fontSize=12;fontColor=default;" edge="1" parent="1" source="8ixF9nkOyML7NzaQuVDj-8" target="8ixF9nkOyML7NzaQuVDj-7">
          <mxGeometry relative="1" as="geometry" />
        </mxCell>
        <mxCell id="8ixF9nkOyML7NzaQuVDj-8" value="model" style="rounded=1;whiteSpace=wrap;html=1;fillColor=#f8cecc;strokeColor=#b85450;fillStyle=hatch;" vertex="1" parent="1">
          <mxGeometry x="360" y="240" width="80" height="40" as="geometry" />
        </mxCell>
        <mxCell id="8ixF9nkOyML7NzaQuVDj-10" value="" style="edgeStyle=orthogonalEdgeStyle;rounded=0;orthogonalLoop=1;jettySize=auto;html=1;fontFamily=Helvetica;fontSize=12;fontColor=default;" edge="1" parent="1" source="8ixF9nkOyML7NzaQuVDj-9" target="8ixF9nkOyML7NzaQuVDj-7">
          <mxGeometry relative="1" as="geometry" />
        </mxCell>
        <mxCell id="8ixF9nkOyML7NzaQuVDj-9" value="data" style="rounded=1;whiteSpace=wrap;html=1;fillColor=#e1d5e7;strokeColor=#9673a6;fillStyle=hatch;" vertex="1" parent="1">
          <mxGeometry x="160" y="160" width="80" height="40" as="geometry" />
        </mxCell>
        <mxCell id="8ixF9nkOyML7NzaQuVDj-14" value="&lt;b&gt;NetF, NetG&lt;/b&gt;" style="text;html=1;align=center;verticalAlign=middle;resizable=0;points=[];autosize=1;strokeColor=none;fillColor=none;fontSize=12;fontFamily=Helvetica;fontColor=default;rounded=1;" vertex="1" parent="1">
          <mxGeometry x="400" y="210" width="80" height="30" as="geometry" />
        </mxCell>
        <mxCell id="8ixF9nkOyML7NzaQuVDj-15" value="&lt;b&gt;boundary dataset&lt;/b&gt;" style="text;html=1;align=center;verticalAlign=middle;resizable=0;points=[];autosize=1;strokeColor=none;fillColor=none;fontSize=12;fontFamily=Helvetica;fontColor=default;rounded=1;" vertex="1" parent="1">
          <mxGeometry x="240" y="150" width="120" height="30" as="geometry" />
        </mxCell>
        <mxCell id="8ixF9nkOyML7NzaQuVDj-16" value="&lt;b&gt;train dataset&lt;/b&gt;" style="text;html=1;align=center;verticalAlign=middle;resizable=0;points=[];autosize=1;strokeColor=none;fillColor=none;fontSize=12;fontFamily=Helvetica;fontColor=default;rounded=1;" vertex="1" parent="1">
          <mxGeometry x="255" y="180" width="90" height="30" as="geometry" />
        </mxCell>
        <mxCell id="8ixF9nkOyML7NzaQuVDj-17" value="&lt;b&gt;loss function&lt;/b&gt;" style="text;html=1;align=center;verticalAlign=middle;resizable=0;points=[];autosize=1;strokeColor=none;fillColor=none;fontSize=12;fontFamily=Helvetica;fontColor=default;" vertex="1" parent="1">
          <mxGeometry x="395" y="130" width="100" height="30" as="geometry" />
        </mxCell>
        <mxCell id="8ixF9nkOyML7NzaQuVDj-19" value="&lt;b&gt;real value&lt;/b&gt;" style="text;html=1;align=center;verticalAlign=middle;resizable=0;points=[];autosize=1;strokeColor=none;fillColor=none;fontSize=12;fontFamily=Helvetica;fontColor=default;" vertex="1" parent="1">
          <mxGeometry x="240" y="75" width="80" height="30" as="geometry" />
        </mxCell>
      </root>
    </mxGraphModel>
  </diagram>
</mxfile>
